<svg t="1653896527567" class="icon" viewBox="0 0 1024 1024" version="1.1" xmlns="http://www.w3.org/2000/svg" p-id="4643" width="200" height="200"><path d="M263.258891 1023.999909a83.051421 83.051421 0 0 1-83.154279-84.731421 1318.959882 1318.959882 0 0 0-13.325713-215.119981c-1.142857-7.999999-2.422857-16.114284-3.828571-24.537141a135.999988 135.999988 0 0 1-64.777137-81.14285 135.817131 135.817131 0 0 1-81.257135-196.079982A135.782845 135.782845 0 0 1 98.173191 226.285694a135.805702 135.805702 0 0 1 78.514279-87.748564q4.971428-2.057143 10.06857-3.691428a118.731418 118.731418 0 0 1 112.994276-81.897135q3.828571 0 7.645714 0.24a118.548561 118.548561 0 0 1 133.119988-31.999997 130.94856 130.94856 0 0 1 143.005701 0 118.548561 118.548561 0 0 1 133.119988 31.999997q3.805714-0.24 7.634285-0.24A118.685704 118.685704 0 0 1 837.270268 134.857131q5.097142 1.622857 10.057142 3.691428A135.874274 135.874274 0 0 1 925.864546 226.285694a135.794274 135.794274 0 0 1 81.245707 196.114268 135.794274 135.794274 0 0 1-81.245707 196.068554 135.999988 135.999988 0 0 1-64.788566 81.14285c-1.405714 8.422856-2.674285 16.559999-3.828571 24.525712a1319.234168 1319.234168 0 0 0-13.325713 215.142838A83.051421 83.051421 0 0 1 760.767418 1023.999909z" fill="#25467A" p-id="4644"></path><path d="M942.870259 421.325677a84.788564 84.788564 0 0 0-61.714281-148.971416c-0.514286-0.525714-0.982857-1.142857-1.508571-1.645714a85.039992 85.039992 0 0 0-52.091424-84.822849 83.62285 83.62285 0 0 0-36.365711-6.148571 67.588565 67.588565 0 0 0-97.828562-68.285708c-0.537143-0.228571-1.142857-0.388571-1.668572-0.617143a68.057137 68.057137 0 0 0-64.502851-46.857139 67.23428 67.23428 0 0 0-49.382853 21.634284 80.114279 80.114279 0 0 0-131.634274 0A67.199994 67.199994 0 0 0 396.813165 63.999994a68.057137 68.057137 0 0 0-64.502852 46.857139c-0.548571 0.228571-1.142857 0.388571-1.668571 0.617143a68.03428 68.03428 0 0 0-78.639993 12.571427 67.302851 67.302851 0 0 0-19.177141 55.748567 83.70285 83.70285 0 0 0-36.37714 6.148571 85.051421 85.051421 0 0 0-52.079995 84.914278c-0.525714 0.514286-1.142857 0.982857-1.645714 1.508571a84.788564 84.788564 0 0 0-61.714281 148.902844c0 0.742857 0.091429 1.485714 0.091429 2.285714a84.788564 84.788564 0 0 0 61.71428 148.971415c0.514286 0.525714 0.982857 1.142857 1.508572 1.645714a84.788564 84.788564 0 0 0 148.902843 61.714281c0.742857 0 1.485714-0.091429 2.285714-0.091429a84.788564 84.788564 0 0 0 148.971416-61.71428c0.525714-0.514286 1.142857-0.982857 1.645714-1.508572A85.599992 85.599992 0 0 0 512.013154 548.034237a85.554278 85.554278 0 0 0 66.03428 24.411426c0.514286 0.525714 0.982857 1.142857 1.508571 1.645714a84.788564 84.788564 0 0 0 148.902844 61.714281c0.742857 0 1.485714-0.091429 2.285714-0.091429a84.788564 84.788564 0 0 0 148.971416-61.71428c0.525714-0.514286 1.142857-0.982857 1.645714-1.508572a84.788564 84.788564 0 0 0 61.71428-148.902843c-0.091429-0.731429-0.205714-1.52-0.205714-2.262857z" fill="#00884B" p-id="4645"></path><path d="M806.413128 716.799936a1363.942735 1363.942735 0 0 0-13.82857 223.485694 31.885711 31.885711 0 0 1-31.999997 32.514283h-497.142813a31.885711 31.885711 0 0 1-31.999997-32.514283 1363.942735 1363.942735 0 0 0-13.82857-223.485694 1378.948448 1378.948448 0 0 0-38.399997-179.199984c25.599998-8.571428 51.199995-17.02857 76.799993-25.599998 14.079999 100.354277 77.188565 159.4857 115.19999 153.599987 15.74857-2.434285 32.125711-16.765713 44.799996-39.679997 17.794284-32.251426 28.285712-81.668564 19.199998-139.519987h153.599986c-9.142856 57.851423 1.405714 107.268562 19.199999 139.519987 12.674285 22.914284 29.062855 37.245711 44.799996 39.679997 38.011425 5.885714 101.119991-53.24571 115.199989-153.599987 25.599998 8.571428 51.199995 17.02857 76.799994 25.599998a1378.948448 1378.948448 0 0 0-38.399997 179.199984z" fill="#D7F4BD" p-id="4646"></path><path d="M512.013154 895.99992a64.068566 64.068566 0 0 1-63.999994-63.999994 12.799999 12.799999 0 1 1 25.599998 0 38.399997 38.399997 0 0 0 76.799993 0 12.799999 12.799999 0 0 1 25.599998 0 64.068566 64.068566 0 0 1-63.999995 63.999994z" fill="#25467A" p-id="4647"></path><path d="M384.013166 729.599935m-38.399997 0a38.399997 38.399997 0 1 0 76.799993 0 38.399997 38.399997 0 1 0-76.799993 0Z" fill="#25467A" p-id="4648"></path><path d="M640.013143 729.599935m-38.399997 0a38.399997 38.399997 0 1 0 76.799993 0 38.399997 38.399997 0 1 0-76.799993 0Z" fill="#25467A" p-id="4649"></path><path d="M332.81317 793.599929h-51.199995a25.599998 25.599998 0 1 0 0 51.199996h51.199995a25.599998 25.599998 0 0 0 0-51.199996zM742.413134 793.599929h-51.199996a25.599998 25.599998 0 1 0 0 51.199996h51.199996a25.599998 25.599998 0 0 0 0-51.199996z" fill="#B4E876" p-id="4650"></path><path d="M934.413117 435.199961a72.274279 72.274279 0 0 0-49.759996-68.571422c-0.24-0.582857-0.411429-1.142857-0.651428-1.782857a72.079994 72.079994 0 0 0-96.879992-96.879992c-0.582857-0.24-1.142857-0.411429-1.782857-0.651428a72.068565 72.068565 0 0 0-137.051416 0c-0.582857 0.24-1.142857 0.411429-1.782857 0.651428a72.068565 72.068565 0 0 0-96.868563 96.879992c-0.251429 0.582857-0.422857 1.2-0.651428 1.782857a72.057136 72.057136 0 0 0 0 137.051416c0.228571 0.582857 0.4 1.2 0.651428 1.782857a72.068565 72.068565 0 0 0 96.868563 96.879991c0.582857 0.24 1.2 0.411429 1.782857 0.651429a72.068565 72.068565 0 0 0 137.051416 0c0.594286-0.24 1.211428-0.411429 1.782857-0.651429a72.079994 72.079994 0 0 0 96.879992-96.879991c0.24-0.582857 0.411429-1.2 0.651428-1.782857a72.274279 72.274279 0 0 0 49.759996-68.479994z" fill="#00AA5E" p-id="4651"></path><path d="M768.013131 383.999966a85.06285 85.06285 0 0 0-58.548566-80.628565c-0.274286-0.685714-0.48-1.405714-0.765714-2.091428a84.788564 84.788564 0 0 0-113.965704-113.965704c-0.685714-0.285714-1.405714-0.491429-2.091428-0.765714a84.788564 84.788564 0 0 0-161.2457 0c-0.697143 0.274286-1.417143 0.48-2.102857 0.765714a84.788564 84.788564 0 0 0-113.965704 113.965704c-0.285714 0.685714-0.48 1.405714-0.765715 2.091428a84.788564 84.788564 0 0 0 0 161.257129c0.285714 0.685714 0.48 1.405714 0.765715 2.091428a84.788564 84.788564 0 0 0 113.965704 113.965704c0.685714 0.285714 1.405714 0.491429 2.102857 0.765715a84.788564 84.788564 0 0 0 161.2457 0c0.685714-0.274286 1.405714-0.48 2.091428-0.765715a84.788564 84.788564 0 0 0 113.965704-113.965704c0.285714-0.685714 0.491429-1.405714 0.765714-2.091428A85.06285 85.06285 0 0 0 768.013131 383.999966z" fill="#34BC6E" p-id="4652"></path><path d="M524.813153 435.199961a72.274279 72.274279 0 0 0-49.759995-68.571422c-0.24-0.582857-0.411429-1.142857-0.651429-1.782857a72.079994 72.079994 0 0 0-96.879991-96.879992c-0.582857-0.24-1.142857-0.411429-1.782857-0.651428a72.068565 72.068565 0 0 0-137.051417 0c-0.582857 0.24-1.142857 0.411429-1.782857 0.651428a72.068565 72.068565 0 0 0-96.868562 96.879992c-0.251429 0.582857-0.422857 1.2-0.651429 1.782857a72.057136 72.057136 0 0 0 0 137.051416c0.228571 0.582857 0.4 1.2 0.651429 1.782857a72.068565 72.068565 0 0 0 96.868562 96.879991c0.582857 0.24 1.2 0.411429 1.782857 0.651429a72.068565 72.068565 0 0 0 137.051417 0c0.594286-0.24 1.211428-0.411429 1.782857-0.651429a72.079994 72.079994 0 0 0 96.879991-96.879991c0.24-0.582857 0.411429-1.2 0.651429-1.782857a72.274279 72.274279 0 0 0 49.759995-68.479994z" fill="#57D785" p-id="4653"></path></svg>